<svg xmlns="http://www.w3.org/2000/svg" version="1.1" viewBox="-5.0 -10.0 110.0 135.0">
 <path d="m26.758 99.922c-2.4492-0.0625-16.152-0.80469-19.77-1.0742-1.3125-0.097656-2.5625-0.26953-2.7812-0.38672-0.33984-0.18359-0.40234-0.48828-0.46094-2.2695-0.21484-6.8633 3.8281-14.883 9.6641-19.152 0.86328-0.63281 1.9102-1.3359 2.3242-1.5664l0.75391-0.41797-0.95312-0.71484c-1.2617-0.94531-2.8086-2.8594-3.5859-4.4375-3.2852-6.6758-0.69922-14.781 5.7695-18.082 2.168-1.1055 3.5156-1.4258 5.9531-1.418 2.332 0.007812 4.1523 0.48438 6.0117 1.5781 2.168 1.2734 4.1914 3.7227 4.7969 5.8086 0.20703 0.71484 0.44531 1.1172 0.69531 1.1836 0.58203 0.15234 1.0195 0.97266 1.3516 2.5391 0.89062 4.2031-0.375 8.8672-3.2305 11.922-0.6875 0.73438-1.2148 1.3633-1.168 1.3984 0.042969 0.035157 0.63281 0.36719 1.3086 0.74219 5.1562 2.8594 9.3945 8.3086 11.605 14.93 0.6875 2.0586 1.4648 5.6367 1.4648 6.7461 0 0.92578-0.74219 1.8281-1.7852 2.168-1.4766 0.48438-9.6758 0.71094-17.965 0.5zm-17.668-2.8438c2.1914-0.17578 6.1133-0.49609 8.7188-0.71875 6.793-0.57422 10.891-0.79297 17.949-0.95312 3.4219-0.078125 6.2227-0.22266 6.2227-0.32422 0-0.42969-1.5195-4.0547-2.4961-5.9609-2.4297-4.7305-6.2539-8.5469-10.078-10.059-1.3242-0.52344-3.7734-1.0195-5.043-1.0195-2.5039 0-5.9375 1.2109-8.375 2.9531-2.8203 2.0117-6.0234 5.9805-8.0039 9.9062-1.4922 2.957-3.2227 6.6992-3.0508 6.5938 0.09375-0.058594 1.9648-0.24609 4.1562-0.42188zm16.473-24.789c5.582-0.80859 9.293-5.8672 8.168-11.121-0.17188-0.80469-0.16797-1.1953 0.019531-1.6055 0.23438-0.51562 0.1875-0.60156-1.0078-1.6992-3.6836-3.3984-8.3789-4.1875-12.406-2.0898-4.3242 2.25-6.0078 7.3672-3.8555 11.734 1.1953 2.4297 3.7422 4.332 6.3672 4.7578 0.62109 0.10156 1.1797 0.19141 1.2344 0.20312 0.054688 0.011719 0.72266-0.070312 1.4805-0.17969zm31.953 26.969c-1.9727-0.16406-2.9258-0.35937-3.3438-0.6875-0.58984-0.46484-0.11328-4.5938 0.89844-7.8008 1.7695-5.6172 5.6523-10.387 10.605-13.031l1.2188-0.65234-1.1133-0.85938c-1.4453-1.1133-2.8477-2.918-3.7461-4.8086-3.5039-7.3828 0.36719-16.395 8.1289-18.918 1.8711-0.60938 5.3867-0.74219 7.2031-0.27344 4.3984 1.1328 7.7461 4.5312 8.7656 8.9023 0.17969 0.76172 0.28516 1.875 0.23828 2.4727-0.058594 0.74219 0 1.1562 0.1875 1.3125 0.41016 0.33984 0.33984 2.5195-0.13672 4.4141-0.60547 2.3906-1.6367 4.3281-3.2148 6.0312-0.75 0.8125-1.332 1.5-1.2891 1.5273 0.042969 0.027343 0.58594 0.28125 1.2109 0.55859 3.1328 1.4023 7.0234 4.793 9.1133 7.9492 1.9609 2.9609 3.6914 7.3711 3.9844 10.16 0.24609 2.3516-0.84766 3.1953-4.5312 3.5039-2.8555 0.23828-31.66 0.41016-34.18 0.20312zm-0.71875-1.5586c1.4492-0.31641 20.035-2.1523 27.055-2.6758 2.375-0.17578 5-0.375 5.8281-0.4375l1.5078-0.11719-0.13281-0.54688c-0.25-1.0195-2.1562-4.8047-3.0625-6.0742-1.1914-1.6719-3.8359-4.1719-5.4297-5.1406-4.875-2.9609-10.68-3.168-15.855-0.5625-4.0625 2.0469-7.8203 5.9062-10.016 10.293-0.62891 1.2539-1.8281 4.332-2.043 5.2344-0.12891 0.54297-0.10156 0.58203 0.33203 0.45312 0.26172-0.074219 1.0742-0.26953 1.8125-0.42969zm20.676-23.633c1.6133-0.42969 3.168-1.3164 4.4297-2.5234 1.4453-1.3789 2.1875-2.7188 2.5781-4.6523 0.16797-0.82422 0.40234-1.6953 0.52734-1.9375 0.1875-0.36719 0.082032-0.71094-0.62109-2.0625-1.9336-3.7148-5.5664-6.0391-9.4883-6.0664-1.8398-0.015625-2.9805 0.26172-4.5742 1.1055-3.5469 1.8789-5.2969 6.2383-4.0938 10.199 0.82031 2.707 2.9023 4.8203 5.6953 5.7773 1.4531 0.5 3.9922 0.57031 5.543 0.15625zm-30.039-14.355c-1.0625-0.53516-2.2852-2.7734-4.375-7.9961-1.6406-4.1094-2.5508-6.8398-3-9.0195-0.17188-0.83203-0.35547-1.5547-0.41406-1.6133-0.054687-0.054687-0.82422 0.042969-1.7109 0.21875-0.88672 0.17578-2.4922 0.42188-3.5664 0.54297-2.3711 0.27344-14.977 0.51953-16.316 0.32031-0.67578-0.10156-1.1445-0.33203-1.5938-0.78125-1.3867-1.3867-1.332-1.0117-1.2734-8.3828 0.10547-13.473 0.75391-23.59 1.8203-28.5 0.17188-0.79297 0.33203-1.5312 0.35547-1.6445 0.085937-0.39062 0.37109-0.72656 0.53125-0.625 0.089844 0.054687 0.47656 0.007812 0.85938-0.10547 3.4883-1.0195 26.977-2 50.59-2.1055 8.4375-0.039062 9.4219-0.0078124 9.9922 0.30469 0.98047 0.53516 1.2109 0.94531 1.2422 2.2031 0.015625 0.63672 0.17188 1.8047 0.35156 2.5938 0.82422 3.6992 1.2148 11.512 1.2461 24.895 0.023437 9.7383 0.003906 10.32-0.36328 10.93-0.84375 1.3945-0.92188 1.4102-8.543 1.4844-3.9297 0.039062-8.293-0.035157-10.184-0.16797-1.8203-0.13281-3.5742-0.25391-3.8984-0.27344-0.55469-0.035156-0.61719 0.054688-1.2148 1.6992-0.34766 0.95312-2.1328 4.7578-3.9727 8.4531-3.6289 7.2852-4 7.8242-5.4023 7.7969-0.41406-0.007812-0.94141-0.10547-1.168-0.22266zm4.3008-12.148c1.3945-2.3398 3.0273-4.9219 3.6289-5.7344 0.60547-0.8125 1.2422-1.7695 1.418-2.1211 0.44141-0.88281 2.043-1.4883 4.6484-1.7539 1.1289-0.11328 5.2891-0.27344 9.25-0.35156l7.1992-0.14453-0.070312-12.57c-0.066406-11.895 0.09375-17.602 0.5625-19.668l0.16406-0.71875-18.434-0.03125c-25.441-0.042969-38.395-0.48438-41.602-1.4258-0.30469-0.089844-0.30859 0.011719-0.058594 1.0898 0.87891 3.7812 1.3008 10.676 1.4414 23.613l0.10938 10.285 5.9023 0.13281c5.8711 0.13281 10.609 0.54297 12.824 1.1094 0.64062 0.16406 1.543 0.29687 2.0117 0.29687 0.80859 0 0.89453 0.0625 1.8164 1.332 0.53125 0.73438 1.4141 2.1445 1.9648 3.1367 0.90625 1.6406 3.4062 6.8242 3.8906 8.0781 0.19531 0.50781 0.20312 0.50781 0.5 0.10156 0.16406-0.22656 1.4375-2.3281 2.832-4.668zm7.3242-17.992c-12.73-0.51172-27.211-1.6523-29.637-2.3359-0.40234-0.11328-0.91016-0.33984-1.1328-0.5-0.38672-0.28516-0.37109-0.30859 0.32422-0.60156 1.9023-0.80078 10.102-1.2188 24.41-1.2461 10.535-0.019531 10.746-0.011719 11.316 0.40625 0.32031 0.23438 0.74219 0.74609 0.9375 1.1367 0.47656 0.95312 0.1875 2.0469-0.70312 2.6797-0.69531 0.49219-1.9883 0.60156-5.5156 0.46094zm-1.3359-13.039c-14.012-0.52344-24.266-1.3438-27.312-2.1914-1.7188-0.47656-1.6172-0.64453 0.66797-1.0781 3.5508-0.67188 11.957-1.0508 24.379-1.0977 8.3477-0.03125 9.3242 0 9.9141 0.3125 1.2148 0.64453 1.6016 1.7227 1.0508 2.9297-0.5625 1.2344-1.7227 1.3828-8.7031 1.125z"/>
<text x="0.0" y="117.5" font-size="5.0" font-weight="bold" font-family="Arbeit Regular, Helvetica, Arial-Unicode, Arial, Sans-serif" fill="#000000">Created by Dodeldesign</text><text x="0.0" y="122.5" font-size="5.0" font-weight="bold" font-family="Arbeit Regular, Helvetica, Arial-Unicode, Arial, Sans-serif" fill="#000000">from Noun Project</text></svg>